<svg width="58" height="34" viewBox="0 0 58 34" fill="none" xmlns="http://www.w3.org/2000/svg">
  <path d="M17 0C7.61116 0 0 7.61116 0 17C0 26.3888 7.61116 34 17 34C21.1144 34 24.8747 32.5024 27.7873 30.0315C30.3294 32.2849 33.6437 33.6491 37.2857 33.6491C45.8928 33.6491 52.8571 26.6848 52.8571 18.0777C52.8571 9.47059 45.8928 2.50629 37.2857 2.50629C33.9821 2.50629 30.9635 3.68846 28.6051 5.65975C25.8706 2.26614 21.6839 0 17 0ZM17 5.1C20.0315 5.1 22.7953 6.24803 24.8815 8.13225C22.7374 10.5367 21.4286 13.7109 21.4286 17.2026V18.0777C21.4286 21.2326 22.4915 24.1424 24.2785 26.4586C22.3455 27.9802 19.7859 28.9 17 28.9C10.4264 28.9 5.1 23.5736 5.1 17C5.1 10.4264 10.4264 5.1 17 5.1ZM37.2857 7.60629C43.1042 7.60629 47.7571 12.2592 47.7571 18.0777C47.7571 23.8962 43.1042 28.5491 37.2857 28.5491C31.4673 28.5491 26.5286 23.8962 26.5286 18.0777C26.5286 12.2592 31.4673 7.60629 37.2857 7.60629Z" fill="#02ea98"/>
</svg>